# xmcd CD database file
#
# Track frame offsets:
#	150
#	27109
#	62492
#	80470
#	99638
#	118499
#	138880
#	159620
#	186175
#	223397
#	253856
#	285586
#	307565
#
# Disc length: 4454 seconds
#
# Revision: 0
# Processed by: cddbd v1.4PL0 Copyright (c) Steve Scherf et al.
# Submitted via: CDex 1.50beta9
#
DISCID=b711640d
DTITLE=Various Artist - Trumpet Jazz
DYEAR=2000
DGENRE=Jazz
TTITLE0=Lee Morgan/Whisper Not
TTITLE1=Howard McGhee/Demon Chase
TTITLE2=Joe Newman/More Than You Know
TTITLE3=Nat Adderley/Work Song
TTITLE4=Art Farmer/Earth
TTITLE5=Chet Baker/You'd Be So Nice To Come Home To
TTITLE6=Miles Davis/But Not For Me (Take 2)
TTITLE7=Blue Mitchell/I'll Close My Eyes
TTITLE8=Dizzy Gillespie/Manteca
TTITLE9=Freddie Hubbard/Joy Spring
TTITLE10=Eddie Henderson/I Remember Clifford
TTITLE11=Lew Soloff/The Way You Look Tonight
TTITLE12=Nicholas Payton/Lew Soloff/Tom Harrell/Eddie Henderson/Jordu
EXTD=YEAR: 2000
EXTT0=
EXTT1=
EXTT2=
EXTT3=
EXTT4=
EXTT5=
EXTT6=
EXTT7=
EXTT8=
EXTT9=
EXTT10=
EXTT11=
EXTT12=
PLAYORDER=
